# xmcd
#
# Track frame offsets:
#	150
#	11610
#	23840
#	36064
#	50554
#	61732
#	72371
#	83859
#	107736
#	123897
#	133983
#	147920
#	165052
#	185994
#	201132
#	216821
#	233996
#	249552
#	261841
#	274168
#	288115
#	303405
#	320730
#	335485
#
# Disc length: 4663 seconds
# Revision: 1
# Processed by: cddbd v1.5.2PL0 Copyright (c) Steve Scherf et al.
# Submitted via: dBpowerAMP V12.0
#
DISCID=65123518
DTITLE=Various Artist - FAT Favorites 1 [CD1 of 27)
DYEAR=1990
DGENRE=Country
TTITLE0=Gary Stewart - Let's Go Jukin'
TTITLE1=Luke Baldwin - Black Velvet Sky
TTITLE2=Kip Attaway - I'll Hold the Bottle
TTITLE3=John Lincoln Wright and the Sourmash Boys - Closed for Alterations
TTITLE4=Deadly Earnest - Don't Make Me Laugh (While I'm Drinkin')
TTITLE5=Jim Ed Brown - Pop a Top
TTITLE6=David Wills - There's a Song on the Jukebox
TTITLE7=Bobby Bare - The Winner
TTITLE8=Johnny Paycheck - Colorado Kool-Aid
TTITLE9=Commander Cody and the Lost Planet Airmen - Lost in the Ozone
TTITLE10=Commander Cody and the Lost Planet Airmen - Wine, Do Yer Stuff
TTITLE11=The Siegel-Schwall Band - I Think It Was the Wine
TTITLE12=Chuck McDermott and Wheatstraw - I Woke Up a Mess Again Today
TTITLE13=Rio Grande Band - Mean Old Alcohol
TTITLE14=Fraternity of Man - Last Call for Alcohol
TTITLE15=Commander Cody and the Lost Planet Airmen - Seeds and Stems (Again)
TTITLE16=Cleanliness and Godliness Skittle Band - Do It Up (Long Tall Hippie)
TTITLE17=Jonathan Edwards - Shanty
TTITLE18=Bob Frank - She Pawned Her Diamond for Some Gold
TTITLE19=Fraternity of Man - Don't Bogart Me
TTITLE20=Alvin Crow and The Pleasant Valley Boys - Nyquil Blues
TTITLE21=Steven Fremholz - Sea Goin' Junkie
TTITLE22=The Dusty Chaps - Don't Haul Bricks on '66
TTITLE23=Big Brother and the Holding Company - I'll Fix Your Flat Tire, Merle
EXTD=
EXTT0=
EXTT1=
EXTT2=
EXTT3=
EXTT4=
EXTT5=
EXTT6=
EXTT7=
EXTT8=
EXTT9=
EXTT10=
EXTT11=
EXTT12=
EXTT13=
EXTT14=
EXTT15=
EXTT16=
EXTT17=
EXTT18=
EXTT19=
EXTT20=
EXTT21=
EXTT22=
EXTT23=
PLAYORDER=
